<svg viewBox="0 0 99 40" fill="none" xmlns="http://www.w3.org/2000/svg">
<path d="M32.9916 24.593C32.9436 24.593 32.8962 24.5835 32.8518 24.5651C32.8075 24.5467 32.7673 24.5198 32.7334 24.4858C32.6996 24.4518 32.6727 24.4115 32.6544 24.3672C32.6362 24.3228 32.6268 24.2753 32.627 24.2273V15.5858C32.627 15.489 32.6654 15.3961 32.7339 15.3277C32.8024 15.2592 32.8953 15.2207 32.9921 15.2207C33.0889 15.2207 33.1818 15.2592 33.2503 15.3277C33.3188 15.3961 33.3572 15.489 33.3572 15.5858V24.2278C33.3572 24.2758 33.3478 24.3233 33.3294 24.3677C33.311 24.412 33.2841 24.4523 33.2501 24.4862C33.2162 24.5201 33.1758 24.547 33.1315 24.5653C33.0871 24.5836 33.0396 24.593 32.9916 24.593Z" fill="#00AEEF"></path>
<path d="M19.9667 31.6675C19.8699 31.6675 19.777 31.629 19.7085 31.5605C19.64 31.4921 19.6016 31.3992 19.6016 31.3023V22.9041C19.605 22.8095 19.645 22.7199 19.7131 22.6542C19.7813 22.5885 19.8723 22.5518 19.9669 22.5518C20.0616 22.5518 20.1526 22.5885 20.2207 22.6542C20.2889 22.7199 20.3289 22.8095 20.3323 22.9041V31.3023C20.3323 31.3503 20.3229 31.3978 20.3045 31.4422C20.2861 31.4865 20.2592 31.5268 20.2252 31.5607C20.1912 31.5946 20.1509 31.6215 20.1066 31.6398C20.0622 31.6581 20.0147 31.6675 19.9667 31.6675Z" fill="#00AEEF"></path>
<path d="M19.9667 17.2905C19.8699 17.2905 19.777 17.252 19.7085 17.1836C19.64 17.1151 19.6016 17.0222 19.6016 16.9254V8.77667C19.605 8.68206 19.645 8.59247 19.7131 8.52676C19.7813 8.46104 19.8723 8.42432 19.9669 8.42432C20.0616 8.42432 20.1526 8.46104 20.2207 8.52676C20.2889 8.59247 20.3289 8.68206 20.3323 8.77667V16.9254C20.3322 17.0223 20.2936 17.1151 20.2251 17.1836C20.1565 17.2521 20.0636 17.2905 19.9667 17.2905Z" fill="#00AEEF"></path>
<path d="M17.3859 19.0245C17.3256 19.0245 17.2662 19.0096 17.213 18.9812L9.9704 15.0865C9.88733 15.0394 9.82599 14.9616 9.7995 14.8699C9.77301 14.7781 9.78348 14.6796 9.82867 14.5955C9.87385 14.5113 9.95017 14.4482 10.0413 14.4196C10.1324 14.391 10.2311 14.3992 10.3163 14.4424L17.5589 18.3376C17.6306 18.376 17.6874 18.4374 17.7203 18.5118C17.7532 18.5863 17.7603 18.6696 17.7404 18.7485C17.7205 18.8274 17.6748 18.8975 17.6106 18.9475C17.5464 18.9975 17.4673 19.0246 17.3859 19.0245Z" fill="#00AEEF"></path>
<path d="M17.1598 34.2694C17.0938 34.2696 17.029 34.2518 16.9724 34.2179L9.39453 29.6994C9.31674 29.6474 9.26191 29.5674 9.24134 29.4761C9.22078 29.3848 9.23606 29.2891 9.28403 29.2087C9.332 29.1284 9.409 29.0695 9.49912 29.0443C9.58925 29.0191 9.68562 29.0294 9.76834 29.0732L17.3452 33.5921C17.4137 33.6332 17.4668 33.6955 17.4964 33.7697C17.5261 33.8438 17.5306 33.9255 17.5094 34.0025C17.4881 34.0794 17.4422 34.1473 17.3787 34.1957C17.3153 34.244 17.2377 34.2703 17.1579 34.2704L17.1598 34.2694Z" fill="#00AEEF"></path>
<path d="M30.0737 11.3265C30.0092 11.3269 29.9457 11.3103 29.8897 11.2783L22.4954 6.95731C22.454 6.93312 22.4177 6.901 22.3887 6.8628C22.3598 6.8246 22.3386 6.78107 22.3264 6.73468C22.3142 6.68829 22.3113 6.63997 22.3178 6.59245C22.3243 6.54494 22.3401 6.49918 22.3643 6.45778C22.3885 6.41637 22.4207 6.38014 22.4589 6.35115C22.4971 6.32216 22.5406 6.30097 22.587 6.2888C22.6334 6.27664 22.6817 6.27373 22.7292 6.28024C22.7767 6.28675 22.8225 6.30255 22.8639 6.32675L30.2577 10.6477C30.3271 10.6882 30.3813 10.7503 30.4118 10.8247C30.4423 10.899 30.4474 10.9813 30.4264 11.0588C30.4054 11.1363 30.3594 11.2047 30.2955 11.2535C30.2317 11.3022 30.1536 11.3286 30.0732 11.3284L30.0737 11.3265Z" fill="#00AEEF"></path>
<path d="M32.6961 10.4744C32.682 10.4748 32.6678 10.474 32.6537 10.472C32.5575 10.4608 32.4696 10.4118 32.4093 10.3359C32.3491 10.2599 32.3215 10.1632 32.3324 10.0669L32.9177 5.07874C32.9219 5.03 32.9358 4.9826 32.9586 4.93934C32.9814 4.89608 33.0127 4.85785 33.0506 4.82692C33.0885 4.79598 33.1322 4.77298 33.1792 4.75927C33.2261 4.74556 33.2754 4.74142 33.3239 4.7471C33.3725 4.75278 33.4195 4.76817 33.462 4.79234C33.5045 4.81651 33.5418 4.84899 33.5715 4.88783C33.6012 4.92667 33.6228 4.97109 33.6351 5.01845C33.6473 5.0658 33.6499 5.11514 33.6427 5.16352L33.0584 10.1517C33.0478 10.2404 33.0051 10.3222 32.9384 10.3817C32.8717 10.4411 32.7855 10.4741 32.6961 10.4744Z" fill="#00AEEF"></path>
<path d="M34.7305 12.0565C34.6507 12.0567 34.5731 12.0306 34.5095 11.9824C34.4459 11.9342 34.3999 11.8664 34.3786 11.7896C34.3572 11.7127 34.3616 11.6309 34.3912 11.5568C34.4207 11.4827 34.4738 11.4203 34.5422 11.3792L36.8824 9.96635C36.9654 9.91639 37.0649 9.90148 37.1589 9.92487C37.253 9.94827 37.3339 10.0081 37.3838 10.0911C37.4338 10.1742 37.4487 10.2736 37.4253 10.3677C37.4019 10.4617 37.3421 10.5426 37.2591 10.5926L34.9198 12.005C34.8625 12.0389 34.7971 12.0567 34.7305 12.0565Z" fill="#00AEEF"></path>
<path d="M39.7615 16.0257C39.7184 16.0259 39.6757 16.0184 39.6352 16.0036L34.8152 14.2251C34.7702 14.2085 34.7289 14.1832 34.6936 14.1507C34.6584 14.1181 34.6299 14.079 34.6098 14.0354C34.5897 13.9919 34.5784 13.9448 34.5765 13.8969C34.5746 13.849 34.5821 13.8011 34.5987 13.7561C34.6152 13.7111 34.6405 13.6698 34.6731 13.6346C34.7056 13.5993 34.7448 13.5708 34.7883 13.5507C34.8318 13.5306 34.8789 13.5193 34.9268 13.5174C34.9748 13.5155 35.0226 13.523 35.0676 13.5396L39.8877 15.3181C39.968 15.3478 40.0354 15.4048 40.0779 15.4791C40.1205 15.5534 40.1356 15.6404 40.1206 15.7247C40.1055 15.809 40.0613 15.8854 39.9957 15.9404C39.93 15.9954 39.8471 16.0256 39.7615 16.0257Z" fill="#00AEEF"></path>
<path d="M37.6299 22.8544C37.5605 22.8545 37.4925 22.8348 37.4339 22.7976C37.3753 22.7604 37.3285 22.7072 37.299 22.6444L33.7907 15.1942C33.7494 15.1065 33.7446 15.0061 33.7774 14.9149C33.8102 14.8238 33.8779 14.7494 33.9655 14.7081C34.0532 14.6669 34.1536 14.6621 34.2448 14.6949C34.3359 14.7277 34.4103 14.7954 34.4516 14.883L37.9599 22.3337C38.001 22.4213 38.0056 22.5217 37.9728 22.6128C37.9399 22.7038 37.8722 22.7781 37.7846 22.8193C37.7362 22.8426 37.6832 22.8546 37.6294 22.8544H37.6299Z" fill="#00AEEF"></path>
<path d="M35.0048 26.9052C34.9243 26.9054 34.8459 26.879 34.782 26.8301C34.718 26.7812 34.672 26.7125 34.6512 26.6348C34.6303 26.557 34.6357 26.4745 34.6665 26.4002C34.6974 26.3258 34.7519 26.2637 34.8217 26.2236L39.0473 23.788C39.1313 23.7397 39.231 23.7266 39.3245 23.7518C39.4181 23.777 39.4978 23.8382 39.5461 23.9222C39.5945 24.0061 39.6075 24.1058 39.5824 24.1994C39.5572 24.2929 39.4959 24.3726 39.412 24.421L35.1864 26.857C35.1311 26.8886 35.0685 26.9052 35.0048 26.9052Z" fill="#00AEEF"></path>
<path d="M36.2738 31.4775C36.2237 31.4774 36.1742 31.4671 36.1283 31.4471C36.0824 31.4271 36.0411 31.3979 36.0069 31.3614L34.0666 29.2852C34.0034 29.214 33.9706 29.1209 33.975 29.0258C33.9795 28.9307 34.0209 28.8412 34.0904 28.7762C34.1599 28.7112 34.2521 28.6759 34.3472 28.6778C34.4424 28.6798 34.533 28.7188 34.5998 28.7866L36.5402 30.8623C36.5888 30.9143 36.6211 30.9794 36.6332 31.0495C36.6454 31.1197 36.6367 31.1918 36.6085 31.2571C36.5802 31.3224 36.5335 31.3781 36.474 31.4172C36.4146 31.4564 36.345 31.4773 36.2738 31.4775Z" fill="#00AEEF"></path>
<path d="M32.1837 35.8334H32.1707C32.0739 35.8301 31.9825 35.7884 31.9164 35.7175C31.8504 35.6467 31.8152 35.5526 31.8186 35.4558L32.0079 29.969C32.0112 29.8722 32.0529 29.7806 32.1237 29.7145C32.1945 29.6484 32.2887 29.6131 32.3856 29.6164C32.4824 29.6197 32.574 29.6614 32.6401 29.7322C32.7062 29.8031 32.7415 29.8972 32.7382 29.9941L32.5484 35.4804C32.5451 35.5749 32.5053 35.6645 32.4373 35.7303C32.3693 35.7961 32.2783 35.8329 32.1837 35.833V35.8334Z" fill="#00AEEF"></path>
<path d="M29.7368 38.1211C29.7043 38.1208 29.6719 38.1165 29.6405 38.1081L22.355 36.082C22.2642 36.0539 22.1879 35.9914 22.1423 35.908C22.0968 35.8245 22.0855 35.7266 22.111 35.635C22.1364 35.5434 22.1966 35.4653 22.2786 35.4172C22.3607 35.3692 22.4582 35.3551 22.5506 35.3778L29.836 37.4043C29.9213 37.4277 29.9951 37.4812 30.0439 37.5549C30.0927 37.6286 30.1131 37.7175 30.1013 37.8051C30.0896 37.8927 30.0464 37.973 29.9799 38.0312C29.9134 38.0894 29.8281 38.1216 29.7397 38.1216L29.7368 38.1211Z" fill="#00AEEF"></path>
<path d="M22.8604 34.4483C22.7733 34.4481 22.6893 34.4168 22.6233 34.3601C22.5573 34.3034 22.5137 34.225 22.5004 34.139C22.4871 34.053 22.5049 33.9651 22.5507 33.8911C22.5965 33.8171 22.6672 33.7618 22.75 33.7354L30.0105 31.4371C30.0567 31.4205 30.1058 31.4133 30.1548 31.4161C30.2039 31.4189 30.2519 31.4316 30.2959 31.4533C30.3399 31.4751 30.3791 31.5055 30.4111 31.5428C30.4431 31.5801 30.4673 31.6234 30.4821 31.6703C30.497 31.7171 30.5022 31.7664 30.4976 31.8153C30.4929 31.8643 30.4784 31.9117 30.455 31.9549C30.4315 31.9981 30.3996 32.0361 30.3612 32.0666C30.3227 32.0972 30.2784 32.1196 30.2311 32.1327L22.9702 34.4309C22.9347 34.4425 22.8976 34.4481 22.8604 34.4478V34.4483Z" fill="#00AEEF"></path>
<path d="M22.3355 39.9998C22.2702 39.9998 22.2061 39.9823 22.1498 39.949C22.0936 39.9158 22.0473 39.8682 22.0157 39.811L20.4896 37.0474C20.4662 37.0054 20.4513 36.9592 20.4458 36.9114C20.4403 36.8637 20.4442 36.8153 20.4574 36.7691C20.4707 36.7229 20.4929 36.6797 20.5228 36.6421C20.5528 36.6045 20.5899 36.5732 20.632 36.5499C20.674 36.5267 20.7203 36.512 20.7681 36.5066C20.8158 36.5013 20.8642 36.5055 20.9104 36.5189C20.9565 36.5323 20.9996 36.5547 21.0371 36.5848C21.0746 36.6149 21.1058 36.6521 21.1288 36.6943L22.6549 39.4579C22.6855 39.5135 22.7012 39.576 22.7003 39.6395C22.6993 39.7029 22.6819 39.7651 22.6497 39.8197C22.6174 39.8744 22.5715 39.9197 22.5164 39.9512C22.4613 39.9827 22.399 39.9993 22.3355 39.9993V39.9998Z" fill="#00AEEF"></path>
<path d="M17.1072 39.9241C17.0416 39.9241 16.9773 39.9065 16.9209 39.8731C16.8645 39.8397 16.8182 39.7916 16.7868 39.7341C16.7554 39.6766 16.74 39.6117 16.7424 39.5462C16.7448 39.4806 16.7648 39.417 16.8003 39.3619L18.5827 36.5824C18.6079 36.5406 18.6412 36.5042 18.6807 36.4755C18.7202 36.4468 18.765 36.4263 18.8126 36.4153C18.8602 36.4042 18.9094 36.4028 18.9576 36.4111C19.0057 36.4194 19.0516 36.4373 19.0927 36.4637C19.1338 36.4901 19.1692 36.5244 19.1967 36.5647C19.2243 36.605 19.2435 36.6504 19.2532 36.6983C19.2629 36.7462 19.2629 36.7955 19.2533 36.8433C19.2436 36.8912 19.2244 36.9366 19.1968 36.9769L17.4145 39.7564C17.3814 39.8078 17.3359 39.8501 17.2822 39.8794C17.2285 39.9087 17.1683 39.9241 17.1072 39.9241Z" fill="#00AEEF"></path>
<path d="M18.5101 29.5813C18.4881 29.5812 18.4662 29.5793 18.4446 29.5755L10.4751 28.1472C10.4274 28.1393 10.3817 28.1219 10.3408 28.0962C10.2999 28.0705 10.2645 28.0369 10.2366 27.9974C10.2088 27.9579 10.189 27.9132 10.1786 27.866C10.1681 27.8188 10.1671 27.77 10.1757 27.7225C10.1842 27.6749 10.2021 27.6295 10.2284 27.5889C10.2546 27.5483 10.2886 27.5133 10.3285 27.4859C10.3683 27.4586 10.4132 27.4394 10.4606 27.4296C10.5079 27.4197 10.5567 27.4193 10.6042 27.4285L18.5746 28.8587C18.6623 28.8768 18.7403 28.9266 18.7937 28.9984C18.8471 29.0703 18.8723 29.1593 18.8644 29.2485C18.8564 29.3377 18.816 29.4209 18.7508 29.4822C18.6856 29.5436 18.6001 29.5788 18.5106 29.5813H18.5101Z" fill="#00AEEF"></path>
<path d="M10.1752 25.8714C10.0934 25.8712 10.014 25.8436 9.94972 25.7929C9.88547 25.7422 9.84008 25.6714 9.82082 25.5919C9.80156 25.5123 9.80954 25.4286 9.84349 25.3542C9.87743 25.2797 9.93538 25.2188 10.0081 25.1811L17.3561 21.3929C17.4418 21.3521 17.54 21.3462 17.6299 21.3766C17.7198 21.4069 17.7944 21.471 17.8378 21.5553C17.8813 21.6397 17.8902 21.7376 17.8627 21.8284C17.8352 21.9192 17.7734 21.9958 17.6904 22.0418L10.3424 25.83C10.2909 25.8574 10.2335 25.8716 10.1752 25.8714Z" fill="#00AEEF"></path>
<path d="M4.96991 27.2728C4.96334 27.2732 4.95674 27.2732 4.95016 27.2728L1.51842 27.0834C1.47049 27.0809 1.42353 27.0688 1.38027 27.048C1.337 27.0272 1.29827 26.9981 1.2663 26.9623C1.23434 26.9265 1.20977 26.8847 1.19401 26.8393C1.17825 26.794 1.17161 26.746 1.17448 26.6981C1.17602 26.6497 1.18735 26.6022 1.20779 26.5584C1.22822 26.5146 1.25733 26.4754 1.29335 26.4431C1.32938 26.4109 1.37157 26.3863 1.41738 26.3708C1.46318 26.3554 1.51165 26.3494 1.55985 26.3532L4.99111 26.543C5.08639 26.5478 5.17598 26.5898 5.24071 26.6599C5.30545 26.73 5.34017 26.8226 5.33747 26.918C5.33476 27.0133 5.29483 27.1039 5.22623 27.1702C5.15763 27.2365 5.0658 27.2733 4.97039 27.2728H4.96991Z" fill="#00AEEF"></path>
<path d="M5.29064 25.9614C5.24206 25.9616 5.19394 25.952 5.14911 25.9333C5.10427 25.9147 5.06362 25.8872 5.02955 25.8526L0.104488 20.8369C0.0366482 20.7678 -0.00093103 20.6745 1.75308e-05 20.5776C0.000966092 20.4807 0.0403647 20.3881 0.109546 20.3203C0.178728 20.2525 0.272025 20.2149 0.368914 20.2158C0.465802 20.2168 0.558346 20.2562 0.626186 20.3254L5.55124 25.341C5.60161 25.3923 5.6357 25.4573 5.64926 25.5279C5.66282 25.5985 5.65523 25.6716 5.62745 25.7379C5.59967 25.8042 5.55294 25.8608 5.49311 25.9007C5.43328 25.9405 5.36301 25.9618 5.29112 25.9619L5.29064 25.9614Z" fill="#00AEEF"></path>
<path d="M8.89593 24.7757C8.83315 24.7755 8.77148 24.7592 8.71684 24.7283C8.66221 24.6974 8.61645 24.653 8.58398 24.5992C8.5515 24.5455 8.53341 24.4843 8.53143 24.4216C8.52946 24.3589 8.54367 24.2967 8.5727 24.241L12.3137 17.1169C12.336 17.0744 12.3664 17.0368 12.4033 17.0061C12.4402 16.9753 12.4827 16.9522 12.5285 16.9379C12.5743 16.9237 12.6225 16.9185 12.6703 16.9229C12.718 16.9272 12.7645 16.941 12.807 16.9632C12.8495 16.9855 12.8871 17.016 12.9178 17.0529C12.9485 17.0897 12.9717 17.1323 12.986 17.1781C13.0002 17.2239 13.0053 17.272 13.001 17.3198C12.9967 17.3676 12.9829 17.414 12.9606 17.4565L9.21964 24.5801C9.18867 24.6391 9.1422 24.6884 9.08524 24.7229C9.02828 24.7574 8.96299 24.7756 8.89641 24.7757H8.89593Z" fill="#00AEEF"></path>
<path d="M5.18344 12.0565C5.14889 12.0565 5.11451 12.0516 5.08132 12.042L2.45982 11.2713C2.4138 11.2578 2.37088 11.2354 2.33352 11.2053C2.29616 11.1753 2.26508 11.1381 2.24207 11.0961C2.21905 11.054 2.20455 11.0078 2.19939 10.9601C2.19423 10.9125 2.1985 10.8642 2.21198 10.8182C2.22545 10.7722 2.24786 10.7293 2.27792 10.6919C2.30798 10.6546 2.3451 10.6235 2.38717 10.6005C2.42924 10.5775 2.47544 10.5629 2.52311 10.5578C2.57078 10.5526 2.61901 10.5569 2.66503 10.5704L5.28653 11.3411C5.37099 11.3656 5.44375 11.4198 5.4914 11.4938C5.53904 11.5677 5.55837 11.6563 5.54582 11.7434C5.53327 11.8304 5.48968 11.91 5.42309 11.9674C5.35649 12.0249 5.27139 12.0563 5.18344 12.056V12.0565Z" fill="#00AEEF"></path>
<path d="M6.3402 10.7199C6.26293 10.7199 6.18766 10.6954 6.12523 10.6498C6.06281 10.6043 6.01647 10.5401 5.99289 10.4665L4.90469 7.09788C4.88888 7.05201 4.88237 7.00344 4.88555 6.95502C4.88872 6.9066 4.90152 6.85929 4.92319 6.81587C4.94485 6.77245 4.97496 6.73379 5.01174 6.70214C5.04852 6.67049 5.09124 6.64648 5.13741 6.63153C5.18357 6.61658 5.23225 6.61098 5.28061 6.61506C5.32896 6.61914 5.37601 6.63282 5.41902 6.65529C5.46203 6.67777 5.50012 6.70859 5.53108 6.74596C5.56204 6.78332 5.58524 6.82649 5.59933 6.87292L6.688 10.242C6.70571 10.2969 6.71019 10.3551 6.7011 10.4119C6.692 10.4688 6.66958 10.5227 6.63566 10.5693C6.60175 10.6158 6.5573 10.6537 6.50595 10.6798C6.4546 10.7059 6.3978 10.7195 6.3402 10.7194V10.7199Z" fill="#00AEEF"></path>
<path d="M8.34477 10.6049C8.31854 10.605 8.29238 10.6022 8.26673 10.5968C8.17245 10.576 8.09025 10.5187 8.03814 10.4374C7.98604 10.3562 7.96829 10.2575 7.98878 10.1632L9.53027 3.15618C9.55318 3.06379 9.61125 2.984 9.69212 2.93381C9.773 2.88361 9.87027 2.86698 9.96323 2.88746C10.0562 2.90793 10.1375 2.96389 10.1898 3.04342C10.2421 3.12295 10.2612 3.21976 10.2432 3.31322L8.70172 10.3193C8.68363 10.4004 8.63839 10.473 8.57348 10.5249C8.50858 10.5768 8.4279 10.6051 8.34477 10.6049Z" fill="#00AEEF"></path>
<path d="M4.40601 32.2974C4.34099 32.2975 4.27714 32.2801 4.22107 32.2472C4.165 32.2143 4.11875 32.167 4.08711 32.1102C4.05547 32.0534 4.03959 31.9892 4.04112 31.9242C4.04264 31.8592 4.06151 31.7958 4.09578 31.7405L5.75577 29.0564C5.80688 28.974 5.88865 28.9152 5.9831 28.893C6.07755 28.8708 6.17694 28.8871 6.25941 28.9382C6.34188 28.9893 6.40066 29.071 6.42284 29.1655C6.44502 29.2599 6.42877 29.3593 6.37767 29.4418L4.71719 32.1264C4.68416 32.179 4.63824 32.2224 4.58379 32.2523C4.52933 32.2822 4.46814 32.2977 4.40601 32.2974Z" fill="#00AEEF"></path>
<path d="M9.20319 36.8443C9.11971 36.8443 9.0388 36.8155 8.97399 36.7629C8.90919 36.7103 8.86443 36.637 8.8472 36.5553L7.3982 29.9192C7.38171 29.8263 7.40182 29.7306 7.45433 29.6522C7.50684 29.5738 7.58767 29.5188 7.67986 29.4986C7.77206 29.4785 7.86846 29.4949 7.94886 29.5443C8.02927 29.5937 8.08742 29.6723 8.11114 29.7636L9.56014 36.3997C9.57041 36.4465 9.57133 36.4949 9.56285 36.542C9.55438 36.5892 9.53668 36.6342 9.51076 36.6744C9.48485 36.7147 9.45123 36.7495 9.41184 36.7767C9.37245 36.804 9.32806 36.8232 9.28123 36.8333C9.25568 36.8397 9.22952 36.8434 9.20319 36.8443Z" fill="#00AEEF"></path>
<path d="M11.4767 38.157C11.3917 38.157 11.3093 38.1274 11.2438 38.0732C11.1783 38.0191 11.1337 37.9437 11.1178 37.8602C11.1019 37.7767 11.1156 37.6903 11.1566 37.6158C11.1976 37.5413 11.2633 37.4834 11.3423 37.4522L17.2515 35.1169C17.3407 35.0851 17.4387 35.0892 17.5249 35.1284C17.6111 35.1675 17.6788 35.2386 17.7136 35.3266C17.7484 35.4146 17.7476 35.5127 17.7115 35.6002C17.6753 35.6877 17.6066 35.7578 17.5199 35.7956L11.6102 38.1314C11.5677 38.1482 11.5224 38.1569 11.4767 38.157Z" fill="#00AEEF"></path>
<path d="M9.86881 11.2044C9.78952 11.2044 9.71238 11.1786 9.64907 11.1309C9.58575 11.0832 9.53972 11.0161 9.51794 10.9399C9.49616 10.8636 9.49981 10.7824 9.52836 10.7084C9.5569 10.6345 9.60878 10.5718 9.67612 10.53L16.9789 6.05723C17.0198 6.0306 17.0656 6.01243 17.1136 6.0038C17.1617 5.99517 17.2109 5.99626 17.2585 6.00699C17.3061 6.01772 17.3511 6.03788 17.3908 6.06629C17.4304 6.09469 17.464 6.13076 17.4895 6.17236C17.515 6.21396 17.5319 6.26024 17.5392 6.30849C17.5466 6.35673 17.5441 6.40595 17.5321 6.45324C17.5201 6.50052 17.4987 6.54492 17.4692 6.5838C17.4397 6.62268 17.4027 6.65526 17.3604 6.67961L10.0596 11.1509C10.0021 11.1859 9.9361 11.2044 9.86881 11.2044Z" fill="#00AEEF"></path>
<path d="M17.4778 5.04804C17.4677 5.04804 17.4566 5.04804 17.4465 5.04804L11.7878 4.5721C11.74 4.56816 11.6934 4.55481 11.6508 4.53283C11.6081 4.51086 11.5702 4.48068 11.5392 4.44403C11.5083 4.40738 11.4848 4.36497 11.4703 4.31925C11.4557 4.27353 11.4504 4.22538 11.4545 4.17758C11.4635 4.08153 11.5098 3.99285 11.5835 3.93055C11.6571 3.86824 11.7523 3.83725 11.8485 3.84423L17.5082 4.32016C17.6017 4.3285 17.6884 4.37254 17.7503 4.44314C17.8122 4.51375 17.8445 4.60548 17.8406 4.69929C17.8366 4.79311 17.7966 4.88178 17.729 4.94691C17.6614 5.01203 17.5712 5.04859 17.4773 5.049L17.4778 5.04804Z" fill="#00AEEF"></path>
<path d="M19.3331 3.53655C19.2575 3.53645 19.1838 3.51298 19.1221 3.46934C19.0603 3.4257 19.0136 3.36404 18.9882 3.29281L17.9998 0.48874C17.9672 0.397329 17.9722 0.296719 18.0138 0.209045C18.0554 0.121371 18.1302 0.0538138 18.2216 0.0212353C18.313 -0.0113432 18.4136 -0.00627434 18.5013 0.0353268C18.589 0.076928 18.6565 0.151654 18.6891 0.243065L19.6771 3.04761C19.6931 3.09287 19.7 3.14085 19.6975 3.18879C19.695 3.23673 19.683 3.28371 19.6623 3.32702C19.6416 3.37033 19.6125 3.40913 19.5768 3.4412C19.541 3.47327 19.4993 3.49798 19.454 3.51391C19.4153 3.52835 19.3744 3.53601 19.3331 3.53655Z" fill="#00AEEF"></path>
<path d="M21.3709 3.77962C21.3013 3.77961 21.2332 3.7597 21.1745 3.72225C21.1159 3.68481 21.0691 3.63138 21.0398 3.56825C21.0105 3.50513 20.9999 3.43495 21.0091 3.36597C21.0183 3.297 21.0471 3.2321 21.092 3.17892L23.3691 0.48517C23.4 0.448511 23.4379 0.418304 23.4805 0.396273C23.5231 0.374243 23.5696 0.36082 23.6174 0.356772C23.6652 0.352724 23.7133 0.358129 23.759 0.37268C23.8047 0.38723 23.8471 0.410641 23.8838 0.441575C23.9204 0.472509 23.9506 0.510361 23.9727 0.552969C23.9947 0.595577 24.0081 0.642107 24.0122 0.689902C24.0162 0.737698 24.0108 0.785823 23.9963 0.831529C23.9817 0.877236 23.9583 0.919629 23.9274 0.956288L21.6498 3.65004C21.6156 3.69063 21.5729 3.72325 21.5247 3.74563C21.4765 3.76801 21.424 3.77961 21.3709 3.77962Z" fill="#00AEEF"></path>
<path d="M22.4971 5.11839C22.407 5.1177 22.3203 5.08371 22.2538 5.02297C22.1872 4.96223 22.1455 4.87902 22.1366 4.78935C22.1276 4.69969 22.1522 4.60989 22.2055 4.53724C22.2588 4.46459 22.3371 4.41422 22.4253 4.39582L30.363 2.81435C30.4101 2.80486 30.4585 2.80472 30.5056 2.81396C30.5527 2.82319 30.5975 2.8416 30.6375 2.86815C30.6774 2.8947 30.7118 2.92886 30.7385 2.96868C30.7653 3.00851 30.784 3.05321 30.7935 3.10024C30.8029 3.14728 30.8031 3.19572 30.7938 3.2428C30.7846 3.28989 30.7662 3.33469 30.7396 3.37466C30.7131 3.41463 30.6789 3.44898 30.6391 3.47574C30.5993 3.50251 30.5546 3.52117 30.5076 3.53066L22.5684 5.11165C22.5449 5.11642 22.521 5.11868 22.4971 5.11839Z" fill="#00AEEF"></path>
<path d="M18.5731 17.8832C18.5068 17.8835 18.4417 17.8657 18.3847 17.8317C18.3278 17.7978 18.2812 17.749 18.2499 17.6905L14.5074 10.6146C14.4647 10.5293 14.457 10.4307 14.4861 10.3399C14.5151 10.249 14.5786 10.1732 14.6628 10.1285C14.7471 10.0838 14.8455 10.0739 14.937 10.1008C15.0285 10.1277 15.1058 10.1894 15.1524 10.2726L18.8958 17.3471C18.9252 17.4027 18.9397 17.465 18.9379 17.5279C18.9361 17.5909 18.9181 17.6522 18.8857 17.7062C18.8532 17.7601 18.8074 17.8047 18.7526 17.8357C18.6979 17.8667 18.636 17.8831 18.5731 17.8832Z" fill="#00AEEF"></path>
<path d="M21.63 17.8834C21.5661 17.8832 21.5033 17.8663 21.4479 17.8343C21.3926 17.8023 21.3466 17.7563 21.3146 17.7009C21.2826 17.6456 21.2657 17.5828 21.2656 17.5189C21.2655 17.4549 21.2822 17.3921 21.314 17.3366L25.7053 9.68024C25.7549 9.59926 25.8341 9.5408 25.9261 9.51726C26.0181 9.49372 26.1157 9.50694 26.1981 9.55413C26.2805 9.60132 26.3413 9.67876 26.3676 9.77003C26.3938 9.86129 26.3835 9.95919 26.3388 10.043L21.9474 17.6998C21.9154 17.7557 21.8692 17.8021 21.8134 17.8343C21.7577 17.8666 21.6944 17.8835 21.63 17.8834Z" fill="#00AEEF"></path>
<path d="M27.1318 8.35831C27.0636 8.35861 26.9967 8.33939 26.9391 8.30292C26.8984 8.27751 26.8631 8.24431 26.8353 8.20524C26.8074 8.16617 26.7876 8.12198 26.7768 8.07522C26.7661 8.02845 26.7647 7.98003 26.7727 7.93272C26.7807 7.88541 26.798 7.84015 26.8235 7.79952L28.8713 4.53157C28.8968 4.49092 28.93 4.4557 28.9691 4.4279C29.0082 4.40011 29.0524 4.38029 29.0992 4.36958C29.146 4.35886 29.1944 4.35747 29.2417 4.36546C29.289 4.37346 29.3343 4.3907 29.3749 4.4162C29.4156 4.44169 29.4508 4.47494 29.4786 4.51405C29.5064 4.55315 29.5262 4.59735 29.5369 4.64412C29.5476 4.69089 29.549 4.7393 29.541 4.78661C29.533 4.83392 29.5158 4.87919 29.4903 4.91983L27.443 8.18731C27.4099 8.2398 27.3641 8.28303 27.3097 8.31294C27.2554 8.34286 27.1943 8.35847 27.1323 8.35831H27.1318Z" fill="#00AEEF"></path>
<path d="M31.8814 20.3792H22.8632C22.7663 20.3792 22.6735 20.3407 22.605 20.2723C22.5365 20.2038 22.498 20.1109 22.498 20.0141C22.498 19.9172 22.5365 19.8243 22.605 19.7559C22.6735 19.6874 22.7663 19.6489 22.8632 19.6489H31.8814C31.9782 19.6489 32.0711 19.6874 32.1396 19.7559C32.2081 19.8243 32.2465 19.9172 32.2465 20.0141C32.2465 20.1109 32.2081 20.2038 32.1396 20.2723C32.0711 20.3407 31.9782 20.3792 31.8814 20.3792Z" fill="#00AEEF"></path>
<path d="M25.897 17.3463C25.8151 17.3465 25.7356 17.3191 25.6712 17.2686C25.6068 17.2181 25.5612 17.1475 25.5417 17.068C25.5223 16.9884 25.5301 16.9047 25.5639 16.8302C25.5978 16.7557 25.6557 16.6947 25.7284 16.657L29.9978 14.4387C30.0837 14.394 30.1839 14.3852 30.2763 14.4144C30.322 14.4288 30.3645 14.4521 30.4012 14.4829C30.4379 14.5138 30.4682 14.5515 30.4904 14.5941C30.5125 14.6366 30.5261 14.6831 30.5302 14.7309C30.5344 14.7786 30.5291 14.8268 30.5147 14.8725C30.5003 14.9183 30.477 14.9607 30.4462 14.9974C30.4153 15.0342 30.3776 15.0645 30.335 15.0866L26.0641 17.3059C26.0125 17.3326 25.9551 17.3464 25.897 17.3463Z" fill="#00AEEF"></path>
<path d="M29.5576 12.7268H29.5436L27.3971 12.6507C27.3035 12.6444 27.2159 12.6022 27.1525 12.533C27.0891 12.4637 27.0548 12.3728 27.0567 12.2789C27.0586 12.1851 27.0966 12.0956 27.1628 12.029C27.229 11.9624 27.3182 11.9239 27.412 11.9214H27.4251L29.5716 11.9975C29.6684 11.9992 29.7606 12.0392 29.8279 12.1089C29.8952 12.1785 29.9321 12.2721 29.9305 12.3689C29.9288 12.4657 29.8887 12.558 29.8191 12.6253C29.7494 12.6926 29.6559 12.7294 29.5591 12.7278L29.5576 12.7268Z" fill="#00AEEF"></path>
<path d="M29.8771 26.0591C29.8126 26.0595 29.7491 26.0429 29.6931 26.0109L22.3141 21.7136C22.2331 21.6636 22.1748 21.5839 22.1516 21.4916C22.1284 21.3992 22.1423 21.3015 22.1901 21.2191C22.238 21.1368 22.3162 21.0765 22.4079 21.051C22.4996 21.0254 22.5977 21.0368 22.6812 21.0825L30.0606 25.3775C30.1298 25.418 30.1838 25.4801 30.2142 25.5543C30.2446 25.6286 30.2498 25.7107 30.2289 25.7881C30.208 25.8656 30.1623 25.934 30.0987 25.9829C30.0351 26.0317 29.9573 26.0584 29.8771 26.0586V26.0591Z" fill="#00AEEF"></path>
<path d="M6.83023 24.7761C6.73338 24.7761 6.64051 24.7376 6.57203 24.6692C6.50355 24.6007 6.46508 24.5078 6.46508 24.411V23.1455C6.4633 23.0964 6.47143 23.0474 6.48899 23.0016C6.50655 22.9557 6.53318 22.9138 6.56728 22.8784C6.60139 22.8431 6.64227 22.8149 6.68749 22.7957C6.73271 22.7765 6.78134 22.7666 6.83047 22.7666C6.8796 22.7666 6.92822 22.7765 6.97344 22.7957C7.01866 22.8149 7.05954 22.8431 7.09365 22.8784C7.12775 22.9138 7.15438 22.9557 7.17194 23.0016C7.1895 23.0474 7.19763 23.0964 7.19585 23.1455V24.411C7.19585 24.4589 7.18639 24.5065 7.16801 24.5508C7.14963 24.5951 7.12269 24.6354 7.08873 24.6693C7.05477 24.7032 7.01446 24.7301 6.97011 24.7484C6.92575 24.7668 6.87822 24.7762 6.83023 24.7761Z" fill="#00AEEF"></path>
<path d="M6.82998 21.5909C6.73314 21.5909 6.64027 21.5524 6.57179 21.4839C6.50331 21.4155 6.46484 21.3226 6.46484 21.2257V15.7693C6.46828 15.6747 6.50828 15.5851 6.57643 15.5194C6.64457 15.4537 6.73555 15.417 6.83023 15.417C6.9249 15.417 7.01588 15.4537 7.08402 15.5194C7.15217 15.5851 7.19217 15.6747 7.19561 15.7693V21.2257C7.19548 21.3226 7.1569 21.4155 7.08835 21.484C7.01979 21.5524 6.92687 21.5909 6.82998 21.5909Z" fill="#00AEEF"></path>
<path d="M0.594181 16.8936C0.512063 16.8937 0.432302 16.8662 0.367781 16.8154C0.303259 16.7646 0.257745 16.6935 0.238589 16.6136C0.219434 16.5338 0.227754 16.4498 0.262208 16.3753C0.296661 16.3007 0.355236 16.24 0.428471 16.2028L4.86748 13.9522C4.91042 13.9282 4.95778 13.9131 5.0067 13.9079C5.05562 13.9026 5.1051 13.9073 5.15217 13.9216C5.19924 13.936 5.24293 13.9597 5.28061 13.9913C5.31829 14.023 5.34918 14.0619 5.37143 14.1058C5.39368 14.1497 5.40684 14.1976 5.4101 14.2467C5.41336 14.2958 5.40667 14.345 5.39042 14.3915C5.37417 14.4379 5.3487 14.4806 5.31554 14.517C5.28238 14.5533 5.24221 14.5826 5.19745 14.603L0.757965 16.8541C0.707357 16.8803 0.651163 16.8938 0.594181 16.8936Z" fill="#00AEEF"></path>
<path d="M24.3793 29.5343C24.2896 29.5325 24.2037 29.4977 24.1379 29.4366C24.0722 29.3754 24.0313 29.2923 24.023 29.2029C24.0148 29.1135 24.0397 29.0242 24.093 28.9521C24.1464 28.8799 24.2245 28.8299 24.3124 28.8117L29.5048 27.8415C29.5988 27.8264 29.6951 27.8487 29.7729 27.9036C29.8508 27.9585 29.9041 28.0417 29.9215 28.1353C29.9389 28.229 29.9191 28.3257 29.8661 28.4049C29.8132 28.4841 29.7314 28.5395 29.6382 28.5593L24.4463 29.5299C24.4241 29.5334 24.4017 29.5348 24.3793 29.5343Z" fill="#00AEEF"></path>
<path d="M20.016 8.93234C19.4047 8.93215 18.8073 8.75074 18.2991 8.41105C17.7909 8.07135 17.3949 7.58863 17.161 7.02389C16.9271 6.45914 16.8659 5.83774 16.9852 5.23823C17.1044 4.63872 17.3987 4.08801 17.8308 3.65572C18.263 3.22344 18.8136 2.92897 19.4131 2.80956C20.0125 2.69015 20.634 2.75115 21.1988 2.98484C21.7636 3.21854 22.2464 3.61444 22.5863 4.12251C22.9261 4.63057 23.1077 5.22799 23.1081 5.83924C23.1076 6.65926 22.7817 7.44556 22.202 8.02549C21.6222 8.60542 20.836 8.93157 20.016 8.93234ZM20.016 3.47932C19.5491 3.47932 19.0927 3.61777 18.7046 3.87715C18.3164 4.13654 18.0138 4.50521 17.8352 4.93655C17.6566 5.36788 17.6099 5.84251 17.701 6.30039C17.7921 6.75828 18.0169 7.17886 18.3471 7.50895C18.6773 7.83904 19.0979 8.06381 19.5558 8.15483C20.0137 8.24586 20.4883 8.19904 20.9196 8.02032C21.3509 7.84159 21.7195 7.53897 21.9788 7.15074C22.2381 6.76251 22.3765 6.30611 22.3764 5.83924C22.3754 5.21354 22.1264 4.61375 21.6839 4.17131C21.2415 3.72887 20.6417 3.47986 20.016 3.47884V3.47932Z" fill="#00AEEF"></path>
<path d="M20.016 37.3093C19.4044 37.3094 18.8066 37.1281 18.2982 36.7884C17.7897 36.4488 17.3933 35.9659 17.1593 35.401C16.9252 34.836 16.8639 34.2144 16.9832 33.6146C17.1025 33.0148 17.397 32.4639 17.8294 32.0315C18.2618 31.5991 18.8127 31.3046 19.4124 31.1854C20.0122 31.0661 20.6339 31.1273 21.1988 31.3614C21.7638 31.5955 22.2466 31.9918 22.5863 32.5003C22.926 33.0088 23.1072 33.6066 23.1071 34.2181C23.1062 35.0377 22.7803 35.8234 22.2008 36.4029C21.6213 36.9824 20.8355 37.3084 20.016 37.3093ZM20.016 31.8563C19.5491 31.8563 19.0928 31.9947 18.7046 32.2541C18.3164 32.5134 18.0139 32.8821 17.8352 33.3134C17.6566 33.7447 17.6098 34.2193 17.7009 34.6772C17.792 35.135 18.0168 35.5556 18.3469 35.8857C18.677 36.2158 19.0976 36.4406 19.5555 36.5317C20.0133 36.6228 20.4879 36.576 20.9193 36.3974C21.3506 36.2187 21.7192 35.9162 21.9786 35.528C22.2379 35.1399 22.3764 34.6835 22.3764 34.2167C22.3752 33.591 22.1262 32.9914 21.6837 32.549C21.2413 32.1067 20.6416 31.8578 20.016 31.8567V31.8563Z" fill="#00AEEF"></path>
<path d="M32.2953 30.1999C31.6838 30.2 31.086 30.0188 30.5775 29.6791C30.069 29.3394 29.6727 28.8566 29.4386 28.2917C29.2045 27.7268 29.1432 27.1051 29.2625 26.5054C29.3817 25.9056 29.6761 25.3547 30.1085 24.9223C30.5408 24.4899 31.0917 24.1954 31.6914 24.076C32.2912 23.9567 32.9128 24.0179 33.4778 24.2519C34.0427 24.4859 34.5256 24.8821 34.8654 25.3906C35.2051 25.899 35.3864 26.4968 35.3864 27.1083C35.3857 27.9279 35.0598 28.7137 34.4802 29.2934C33.9007 29.873 33.1149 30.199 32.2953 30.1999ZM32.2953 24.7469C31.8284 24.7469 31.3721 24.8853 30.9839 25.1447C30.5957 25.404 30.2932 25.7727 30.1145 26.204C29.9359 26.6353 29.8891 27.1099 29.9802 27.5678C30.0713 28.0257 30.2961 28.4462 30.6262 28.7763C30.9563 29.1065 31.3769 29.3313 31.8348 29.4223C32.2926 29.5134 32.7672 29.4667 33.1985 29.288C33.6299 29.1094 33.9985 28.8068 34.2579 28.4187C34.5172 28.0305 34.6557 27.5741 34.6557 27.1073C34.6552 26.4813 34.4064 25.881 33.9639 25.4381C33.5214 24.9953 32.9213 24.746 32.2953 24.745V24.7469Z" fill="#00AEEF"></path>
<path d="M7.76353 30.1999C7.15206 30.1999 6.55432 30.0186 6.0459 29.6789C5.53748 29.3391 5.14121 28.8563 4.90721 28.2914C4.67321 27.7264 4.61199 27.1048 4.73128 26.5051C4.85057 25.9054 5.14503 25.3545 5.5774 24.9221C6.00978 24.4898 6.56065 24.1953 7.16038 24.076C7.7601 23.9567 8.38172 24.0179 8.94665 24.2519C9.51158 24.4859 9.99442 24.8822 10.3341 25.3906C10.6739 25.899 10.8552 26.4968 10.8552 27.1083C10.8542 27.9279 10.5281 28.7137 9.94853 29.2933C9.36895 29.8728 8.58317 30.1989 7.76353 30.1999ZM7.76353 24.7469C7.29668 24.7469 6.84032 24.8853 6.45215 25.1447C6.06399 25.404 5.76145 25.7727 5.5828 26.204C5.40414 26.6353 5.3574 27.1099 5.44848 27.5678C5.53955 28.0257 5.76436 28.4462 6.09447 28.7763C6.42458 29.1065 6.84516 29.3313 7.30303 29.4223C7.76091 29.5134 8.23551 29.4667 8.66682 29.288C9.09812 29.1094 9.46677 28.8068 9.72613 28.4187C9.9855 28.0305 10.1239 27.5741 10.1239 27.1073C10.1237 26.4812 9.87497 25.8807 9.43242 25.4378C8.98987 24.9949 8.38964 24.7457 7.76353 24.745V24.7469Z" fill="#00AEEF"></path>
<path d="M32.2953 16.0222C31.6838 16.0223 31.086 15.841 30.5775 15.5014C30.069 15.1617 29.6727 14.6789 29.4386 14.114C29.2045 13.5491 29.1432 12.9274 29.2625 12.3277C29.3817 11.7279 29.6761 11.177 30.1085 10.7446C30.5408 10.3121 31.0917 10.0176 31.6914 9.89831C32.2912 9.77898 32.9128 9.84017 33.4778 10.0742C34.0427 10.3081 34.5256 10.7044 34.8654 11.2128C35.2051 11.7213 35.3864 12.319 35.3864 12.9305C35.3857 13.7502 35.0598 14.536 34.4802 15.1156C33.9007 15.6952 33.1149 16.0213 32.2953 16.0222ZM32.2953 10.5687C31.8284 10.5687 31.3721 10.7071 30.9839 10.9665C30.5957 11.2258 30.2932 11.5945 30.1145 12.0258C29.9359 12.4571 29.8891 12.9317 29.9802 13.3896C30.0713 13.8474 30.2961 14.268 30.6262 14.5981C30.9563 14.9282 31.3769 15.153 31.8348 15.2441C32.2926 15.3352 32.7672 15.2885 33.1985 15.1098C33.6299 14.9311 33.9985 14.6286 34.2579 14.2404C34.5172 13.8523 34.6557 13.3959 34.6557 12.9291C34.6546 12.3033 34.4056 11.7035 33.9632 11.261C33.5208 10.8185 32.921 10.5693 32.2953 10.5682V10.5687Z" fill="#00AEEF"></path>
<path d="M7.76304 16.0222C7.15168 16.0221 6.55406 15.8407 6.04575 15.501C5.53743 15.1613 5.14124 14.6786 4.90726 14.1138C4.67328 13.5489 4.61201 12.9274 4.7312 12.3278C4.85039 11.7281 5.14469 11.1773 5.57689 10.7449C6.00909 10.3125 6.55979 10.0179 7.15937 9.89847C7.75895 9.779 8.38049 9.83998 8.94542 10.0737C9.51036 10.3074 9.99331 10.7034 10.3332 11.2115C10.6732 11.7197 10.8548 12.3172 10.8552 12.9286C10.8547 13.7487 10.5288 14.535 9.94903 15.115C9.3693 15.695 8.5831 16.0213 7.76304 16.0222ZM7.76304 10.5687C7.2962 10.5687 6.83984 10.7071 6.45167 10.9665C6.06351 11.2258 5.76097 11.5945 5.58231 12.0258C5.40366 12.4571 5.35692 12.9317 5.44799 13.3896C5.53907 13.8474 5.76388 14.268 6.09398 14.5981C6.42409 14.9282 6.84468 15.153 7.30255 15.2441C7.76042 15.3352 8.23502 15.2885 8.66633 15.1098C9.09764 14.9312 9.46628 14.6286 9.72565 14.2404C9.98501 13.8523 10.1234 13.3959 10.1234 12.9291C10.1226 12.3033 9.8736 11.7034 9.43115 11.2608C8.98869 10.8183 8.38883 10.5692 7.76304 10.5682V10.5687Z" fill="#00AEEF"></path>
<path d="M20.0292 23.1203C19.4179 23.12 18.8204 22.9385 18.3122 22.5987C17.8041 22.2588 17.4081 21.776 17.1743 21.2111C16.9406 20.6462 16.8796 20.0247 16.999 19.4252C17.1185 18.8257 17.413 18.275 17.8453 17.8429C18.2777 17.4107 18.8285 17.1164 19.4281 16.9973C20.0277 16.8781 20.6491 16.9394 21.2139 17.1734C21.7786 17.4074 22.2613 17.8036 22.6009 18.3119C22.9405 18.8203 23.1218 19.4178 23.1218 20.0292C23.1209 20.849 22.7947 21.6349 22.2149 22.2145C21.6351 22.794 20.849 23.1198 20.0292 23.1203ZM20.0292 17.6688C19.5623 17.6688 19.106 17.8072 18.7178 18.0666C18.3296 18.3259 18.0271 18.6946 17.8484 19.1259C17.6698 19.5572 17.623 20.0318 17.7141 20.4896C17.8052 20.9475 18.03 21.3681 18.3601 21.6982C18.6902 22.0283 19.1108 22.2531 19.5687 22.3442C20.0266 22.4353 20.5012 22.3885 20.9325 22.2099C21.3638 22.0312 21.7324 21.7287 21.9918 21.3405C22.2511 20.9524 22.3896 20.496 22.3896 20.0292C22.3886 19.4035 22.1396 18.8037 21.6971 18.3612C21.2547 17.9188 20.6549 17.6698 20.0292 17.6688Z" fill="#00AEEF"></path>
<path d="M52.1614 24.246C50.1468 24.246 49.1348 23.2629 49.1348 21.9127C49.1348 20.3149 50.4071 19.5311 52.1614 19.5311C52.7084 19.5317 53.254 19.5884 53.7895 19.7003V19.0523C53.7895 17.9763 53.2063 17.3924 51.9923 17.3924C51.2881 17.3895 50.5898 17.5199 49.9342 17.7769L49.6267 16.5318C50.4332 16.2336 51.2867 16.0827 52.1465 16.0863C54.2512 16.0863 55.3104 17.1771 55.3104 19.1286V23.5386C54.3381 24.0387 53.2541 24.2822 52.1614 24.246ZM53.7895 22.7559V20.7408C53.3174 20.6197 52.8321 20.5579 52.3448 20.5567C51.3937 20.5567 50.6865 20.8945 50.6865 21.847C50.6865 22.6615 51.2697 23.0762 52.2992 23.0762C52.815 23.0986 53.3279 22.9883 53.7889 22.7559H53.7895ZM57.2921 26.9044L57.0308 25.567C57.5705 25.4582 58.0822 25.2398 58.5342 24.9253C58.9862 24.6108 59.369 24.2069 59.6587 23.7385C58.0453 21.5555 57.0577 18.9736 56.8023 16.2709H58.3689C58.5647 18.4974 59.2853 20.6458 60.4714 22.5401C61.4931 20.5964 62.1009 18.4619 62.2564 16.2714H63.8077C63.4945 18.8679 62.653 21.3727 61.335 23.6314C60.165 25.6747 58.8131 26.5969 57.2916 26.9044H57.2921ZM75.112 24.0615V19.1599C75.112 18.084 74.6348 17.3924 73.4378 17.3924C72.7855 17.4001 72.1479 17.5863 71.5939 17.9307C71.737 18.3827 71.8045 18.8551 71.7938 19.3291V24.062H70.2728V19.1605C70.2728 18.0845 69.8116 17.393 68.6134 17.393C68.0317 17.3922 67.458 17.529 66.9392 17.7923V24.062H65.3875V16.8091C66.4188 16.3356 67.5397 16.0891 68.6744 16.0863C69.4686 16.0426 70.2509 16.2942 70.8708 16.7927C71.6726 16.3388 72.5764 16.0958 73.4977 16.0863C75.6024 16.0863 76.6621 17.2233 76.6621 19.0523V24.062H75.1109L75.112 24.0615ZM78.8294 13.9662C78.8282 13.7763 78.8834 13.5904 78.9878 13.4319C79.0922 13.2734 79.2413 13.1494 79.4162 13.0756C79.591 13.0017 79.7839 12.9814 79.9703 13.0172C80.1567 13.0529 80.3283 13.1432 80.4634 13.2764C80.5986 13.4097 80.6913 13.5801 80.7297 13.766C80.7681 13.9519 80.7505 14.1451 80.6793 14.321C80.608 14.497 80.4862 14.6479 80.3292 14.7546C80.1723 14.8613 79.9872 14.9191 79.7974 14.9207C79.6684 14.9335 79.5381 14.9176 79.4159 14.8744C79.2936 14.8312 79.1823 14.7616 79.09 14.6706C78.9976 14.5795 78.9264 14.4693 78.8813 14.3476C78.8363 14.226 78.8186 14.096 78.8294 13.9667V13.9662ZM80.5789 24.0615H79.0271V16.2714H80.5789V24.0615ZM83.0064 24.0615V16.8091C84.059 16.3339 85.2005 16.0875 86.3553 16.0863C88.5051 16.0863 89.6423 17.1771 89.6423 19.0523V24.0615H88.091V19.1599C88.091 18.0378 87.5227 17.3924 86.3553 17.3924C85.7336 17.3864 85.1188 17.523 84.5581 17.7918V24.0615H83.0064ZM94.7757 26.9962C93.8989 27.0266 93.0254 26.8748 92.2103 26.5502L92.5331 25.2907C93.2185 25.5562 93.9486 25.6866 94.6834 25.6747C96.0512 25.6747 96.7722 25.0447 96.7722 23.9846V23.3392C96.2495 23.6063 95.6701 23.7435 95.0832 23.7391C92.8857 23.7391 91.5036 22.4022 91.5036 20.0667C91.5036 17.6083 93.0702 16.0895 95.4511 16.0895C96.4416 16.0871 97.4211 16.2967 98.324 16.7041V23.8462C98.324 25.89 96.9572 26.9962 94.7757 26.9962ZM95.2979 22.417C95.8178 22.4315 96.3306 22.2926 96.7722 22.0177V17.6385C96.3486 17.4835 95.9021 17.4003 95.4511 17.3924C93.9926 17.3924 93.0861 18.3613 93.0861 19.9432C93.0856 21.4795 93.8999 22.417 95.2979 22.417Z" fill="#666666"></path>
</svg>